<svg width="134" height="28" viewBox="0 0 134 28" fill="none" xmlns="http://www.w3.org/2000/svg">
<path d="M0 17.161H3.36168C3.36168 18.3342 4.45229 19.1184 6.04483 19.1184C7.51963 19.1184 8.4925 18.4259 8.4925 17.4614C8.4925 14.6914 0.232374 16.2282 0.232374 10.7766C0.232374 7.79474 2.56231 5.96069 5.89611 5.96069C9.2299 5.96069 11.6187 7.85798 11.6187 10.628L8.25703 10.628C8.25703 9.57503 7.28416 8.85089 5.86822 8.85089C4.45229 8.85089 3.56617 9.48332 3.56617 10.4162C3.56617 13.0945 11.8573 11.6209 11.8573 17.1009C11.8573 20.0828 9.52734 22.0402 6.01694 22.0402C2.50654 22.0402 0 20.0512 0 17.161Z" fill="black"/>
<path d="M13.1553 6.32435L16.4581 6.32435V8.52204C17.7253 6.92516 19.5564 5.96387 21.7686 5.96387C25.9885 5.96387 29.1736 9.42642 29.1736 14.002C29.1736 18.5777 25.9885 22.0402 21.7686 22.0402C19.5564 22.0402 17.7284 21.0758 16.4581 19.482V27.4001H13.1553L13.1553 6.32435ZM25.7531 14.002C25.7531 11.2921 23.7763 9.21455 21.1211 9.21455C18.4658 9.21455 16.4612 11.2921 16.4612 14.002C16.4612 16.712 18.4658 18.7895 21.1211 18.7895C23.7763 18.7895 25.7531 16.712 25.7531 14.002Z" fill="black"/>
<path d="M29.645 14.002C29.645 9.42642 33.0966 5.96387 37.6697 5.96387C42.2428 5.96387 45.7222 9.42642 45.7222 14.0337C45.7222 14.4542 45.6912 14.9064 45.6324 15.2985L33.1833 15.2985C33.6852 17.5278 35.4544 19.0014 37.8153 19.0014C39.5566 19.0014 41.0592 18.2203 41.8276 17.044H45.4867C44.2784 20.0259 41.3257 22.0434 37.7564 22.0434C33.0966 22.0434 29.645 18.5808 29.645 14.0052V14.002ZM33.2143 12.5253L42.1839 12.5253C41.682 10.4162 39.9129 9.00269 37.6697 9.00269C35.4265 9.00269 33.7472 10.3877 33.2143 12.5253Z" fill="black"/>
<path d="M46.9614 6.32435L50.2642 6.32435V8.28172C51.4726 6.77654 53.2138 5.96387 55.3393 5.96387C58.9086 5.96387 61.2974 8.37342 61.2974 12.0162V17.0156C61.2974 17.8883 61.7993 18.429 62.6544 18.429H62.9488V21.6797H62.0038C59.3795 21.6797 57.9915 20.3232 57.9915 17.765V13.1293C57.9915 10.7798 56.5167 9.21455 54.2456 9.21455C51.8568 9.21455 50.2642 10.8114 50.2642 13.1894V21.6797H46.9614V6.32435Z" fill="black"/>
<path d="M62.772 14.002C62.772 9.42636 65.9292 5.96381 70.177 5.96381C72.3892 5.96381 74.2172 6.92826 75.4565 8.52198V0L78.7593 0V17.0123C78.7593 17.8851 79.2612 18.4258 80.1474 18.4258H83.5121V21.6765H79.4688C77.4053 21.6765 76.1072 20.8322 75.6641 19.2385C74.3969 20.984 72.479 22.0402 70.177 22.0402C65.9292 22.0402 62.772 18.5776 62.772 14.002ZM75.4565 14.002C75.4565 11.292 73.4798 9.21449 70.8245 9.21449C68.1692 9.21449 66.1646 11.292 66.1646 14.002C66.1646 16.7119 68.1414 18.7895 70.8245 18.7895C73.5077 18.7895 75.4565 16.7119 75.4565 14.002Z" fill="black"/>
<path d="M81.269 6.32431L84.5719 6.32431V8.88248C85.7523 7.13698 87.4936 6.08398 89.6159 6.08398H94.0992V9.54653H89.6159C86.4308 9.54653 84.5719 11.3837 84.5719 14.2139V21.6797H81.269V6.32431Z" fill="black"/>
<path d="M90.7965 16.108V6.32434L94.0994 6.32434V15.1151C94.0994 17.3128 95.4843 18.7895 97.6098 18.7895C99.853 18.7895 101.356 17.2843 101.356 15.055V6.32434L104.658 6.32434V17.0124C104.658 17.8851 105.188 18.4259 106.046 18.4259L113.157 18.4259V21.6766L105.368 21.6766C103.391 21.6766 102.124 20.8923 101.622 19.4472C100.473 21.1327 98.7314 22.037 96.547 22.037C93.0955 22.037 90.7935 19.6876 90.7935 16.1049L90.7965 16.108Z" fill="black"/>
<path d="M107.403 17.4013V0L110.706 0V16.6487C110.706 17.7618 111.385 18.4258 112.475 18.4258H113.389V21.6765H112.004C108.996 21.6765 107.403 20.1713 107.403 17.4013Z" fill="black"/>
<path d="M112.949 14.002C112.949 9.42642 116.401 5.96387 120.974 5.96387C125.547 5.96387 129.026 9.42642 129.026 14.0337C129.026 14.4542 128.999 14.9064 128.937 15.2985L116.488 15.2985C116.989 17.5278 118.759 19.0014 121.12 19.0014C122.861 19.0014 124.363 18.2203 125.132 17.044H128.791C127.583 20.0259 124.633 22.0434 121.061 22.0434C116.401 22.0434 112.949 18.5808 112.949 14.0052V14.002ZM116.518 12.5253L125.488 12.5253C124.986 10.4162 123.217 9.00269 120.974 9.00269C118.731 9.00269 117.051 10.3877 116.518 12.5253Z" fill="black"/>
<path d="M128.937 19.539C128.937 18.1824 129.969 17.1294 131.298 17.1294C132.627 17.1294 133.659 18.1824 133.659 19.539C133.659 20.8955 132.655 21.9169 131.298 21.9169C129.941 21.9169 128.937 20.8923 128.937 19.539Z" fill="#FF4F00"/>
</svg>
